<?xml version="1.0" encoding="UTF-8" standalone="no"?>
<!-- Created with Inkscape (http://www.inkscape.org/) -->

<svg
   xmlns:dc="http://purl.org/dc/elements/1.1/"
   xmlns:cc="http://creativecommons.org/ns#"
   xmlns:rdf="http://www.w3.org/1999/02/22-rdf-syntax-ns#"
   xmlns:svg="http://www.w3.org/2000/svg"
   xmlns="http://www.w3.org/2000/svg"
   xmlns:sodipodi="http://sodipodi.sourceforge.net/DTD/sodipodi-0.dtd"
   xmlns:inkscape="http://www.inkscape.org/namespaces/inkscape"
   width="50"
   height="50"
   viewBox="0 0 13.229166 13.229167"
   version="1.1"
   id="svg8"
   inkscape:version="0.92.2 5c3e80d, 2017-08-06"
   sodipodi:docname="stop-crane.svg">
  <defs
     id="defs2">
    <inkscape:path-effect
       effect="spiro"
       id="path-effect963"
       is_visible="true" />
    <inkscape:path-effect
       effect="spiro"
       id="path-effect959"
       is_visible="true" />
  </defs>
  <sodipodi:namedview
     id="base"
     pagecolor="#ffffff"
     bordercolor="#666666"
     borderopacity="1.0"
     inkscape:pageopacity="0.0"
     inkscape:pageshadow="2"
     inkscape:zoom="2.8"
     inkscape:cx="-42.762531"
     inkscape:cy="29.590922"
     inkscape:document-units="px"
     inkscape:current-layer="layer1"
     showgrid="false"
     units="px"
     inkscape:showpageshadow="false"
     inkscape:snap-page="true"
     inkscape:snap-object-midpoints="true"
     inkscape:snap-center="true"
     inkscape:window-width="1920"
     inkscape:window-height="1003"
     inkscape:window-x="1920"
     inkscape:window-y="24"
     inkscape:window-maximized="1" />
  <metadata
     id="metadata5">
    <rdf:RDF>
      <cc:Work
         rdf:about="">
        <dc:format>image/svg+xml</dc:format>
        <dc:type
           rdf:resource="http://purl.org/dc/dcmitype/StillImage" />
        <dc:title />
      </cc:Work>
    </rdf:RDF>
  </metadata>
  <g
     inkscape:label="Layer 1"
     inkscape:groupmode="layer"
     id="layer1"
     transform="translate(0,-283.77081)">
    <rect
       style="fill:#ff0000;fill-opacity:1;stroke:none;stroke-width:0;stroke-linecap:round;stroke-linejoin:miter;stroke-miterlimit:4;stroke-dasharray:none;stroke-dashoffset:0;stroke-opacity:1;paint-order:normal"
       id="rect815"
       width="13.229166"
       height="13.229166"
       x="0"
       y="283.77081" />
    <circle
       style="fill:#000000;fill-opacity:1;stroke:none;stroke-width:1.05833328;stroke-linecap:square;stroke-linejoin:miter;stroke-miterlimit:4;stroke-dasharray:none;stroke-dashoffset:0;stroke-opacity:1;paint-order:normal"
       id="path867"
       cx="6.614583"
       cy="291.97293"
       r="3.3072915" />
    <rect
       style="fill:#000000;fill-opacity:1;stroke:none;stroke-width:1.05833328;stroke-linecap:square;stroke-linejoin:miter;stroke-miterlimit:4;stroke-dasharray:none;stroke-dashoffset:0;stroke-opacity:1;paint-order:normal"
       id="rect955"
       width="2.5867748"
       height="2.6458333"
       x="5.3211956"
       y="294.35413" />
    <path
       style="fill:#000000;fill-opacity:1;stroke:#ff0400;stroke-width:0.26458332;stroke-linecap:butt;stroke-linejoin:miter;stroke-miterlimit:4;stroke-dasharray:none;stroke-opacity:1"
       d="m 8.1081048,290.58724 c -0.3773271,0.26989 -0.8094642,0.47555 -1.1174373,0.82249 -0.1539865,0.17347 -0.2736496,0.38281 -0.3133082,0.61136 -0.039659,0.22854 0.00712,0.4769 0.1524555,0.65768 0.115032,0.14309 0.2856313,0.23685 0.4656587,0.27288 0.1800275,0.036 0.3686903,0.0166 0.543319,-0.0401 0.3492574,-0.11336 0.6339694,-0.3661 0.894496,-0.62486 0.7619891,-0.75682 1.4274965,-1.65075 1.7099405,-2.68691 0.21732,-0.79725 0.193855,-1.66571 -0.110461,-2.43397 -0.4181386,-1.05562 -1.3230211,-1.84923 -2.3007742,-2.42644 -0.2196258,-0.12965 -0.4457173,-0.25116 -0.6871232,-0.33343 -0.2414058,-0.0823 -0.4999017,-0.12437 -0.7528839,-0.092 -0.2529822,0.0323 -0.5001867,0.14332 -0.6716514,0.33212 -0.085732,0.0944 -0.1516837,0.20724 -0.1881611,0.32943 -0.036478,0.12219 -0.043088,0.25367 -0.015284,0.37812 0.038763,0.17351 0.143326,0.32842 0.2778713,0.44464 0.1345453,0.11621 0.2978743,0.19562 0.467408,0.24916 0.3390675,0.10707 0.7008604,0.11351 1.0501077,0.18027 0.541441,0.1035 1.0598773,0.36074 1.4357219,0.76399 0.3758445,0.40325 0.5990642,0.95679 0.5612622,1.50674 -0.023933,0.34817 -0.1510921,0.68861 -0.3612723,0.96722 -0.2662524,0.43888 -0.6223632,0.82299 -1.0398838,1.12163 z"
       id="path961"
       inkscape:connector-curvature="0"
       inkscape:path-effect="#path-effect963"
       inkscape:original-d="m 8.1081048,290.58724 c -0.4333623,-0.0155 -0.9394217,1.82195 -1.27829,2.09153 -0.3388683,0.26959 1.4548914,-0.63486 1.9034737,-0.39207 0.4485822,0.24278 0.5369037,-2.34069 1.7099405,-2.68691 1.173036,-0.34621 -1.3160043,4.02027 -0.110461,-2.43397 0.215531,-1.15391 -1.4658123,-1.19041 -2.3007742,-2.42644 -0.834962,-1.23604 -1.5903851,0.61394 -2.315104,0.61421 -0.7247191,2.6e-4 1.4098007,0.41708 1.795387,0.87407 0.385586,0.45698 1.2806685,1.35702 1.9969841,2.27073 0.7163151,0.9137 0.4655513,2.29014 -0.3612723,0.96722 -1.5942579,0.5979 0.3584688,1.14539 -1.0398838,1.12163 z"
       sodipodi:nodetypes="ccccscccccc" />
    <circle
       style="fill:#000000;fill-opacity:1;stroke:none;stroke-width:0.26458335;stroke-linecap:square;stroke-linejoin:miter;stroke-miterlimit:4;stroke-dasharray:none;stroke-dashoffset:0;stroke-opacity:1;paint-order:normal"
       id="path965"
       cx="6.4964719"
       cy="285.32996"
       r="1.3229166" />
  </g>
</svg>
